<svg height="512" viewBox="0 0 512 512" width="512" xmlns="http://www.w3.org/2000/svg"><g id="Flat"><path d="m488 105.94v132.92a80 80 0 0 1 -23.43 56.57l-169.14 169.14a80 80 0 0 1 -56.57 23.43h-132.92a81.944 81.944 0 0 1 -81.94-81.94v-132.92a80 80 0 0 1 23.43-56.57l169.14-169.14a80 80 0 0 1 56.57-23.43h132.92a81.944 81.944 0 0 1 81.94 81.94z" fill="#ffb531"/><path d="m488 105.94v132.92a80 80 0 0 1 -23.43 56.57l-169.14 169.14a80 80 0 0 1 -56.57 23.43h-132.92a81.944 81.944 0 0 1 -81.94-81.94v-30.24c148.81-55.87 292.76-163.67 376.95-351.82h5.11a81.944 81.944 0 0 1 81.94 81.94z" fill="#fcac1f"/><path d="m408 136v89.61a32.018 32.018 0 0 1 -9.37 22.63l-150.39 150.39a32.036 32.036 0 0 1 -22.63 9.37h-89.61a31.784 31.784 0 0 1 -16.25-4.43 32.133 32.133 0 0 1 -11.32-11.32 31.784 31.784 0 0 1 -4.43-16.25v-89.61a32.018 32.018 0 0 1 9.37-22.63l150.39-150.39a32.036 32.036 0 0 1 22.63-9.37h89.61a31.784 31.784 0 0 1 16.25 4.43 32.133 32.133 0 0 1 11.32 11.32 31.784 31.784 0 0 1 4.43 16.25z" fill="#f98500"/><path d="m407.48 130.27a31.9 31.9 0 0 0 -23.48-10.27h-89.61a32.036 32.036 0 0 0 -22.63 9.37l-150.39 150.39a32.018 32.018 0 0 0 -9.37 22.63v89.61a31 31 0 0 0 .52 5.73 31.266 31.266 0 0 1 -4.09-5.48 31.784 31.784 0 0 1 -4.43-16.25v-89.61a32.018 32.018 0 0 1 9.37-22.63l150.39-150.39a32.036 32.036 0 0 1 22.63-9.37h89.61a31.784 31.784 0 0 1 16.25 4.43 32.133 32.133 0 0 1 11.32 11.32 31.372 31.372 0 0 1 3.91 10.52z" fill="#f77c00"/><g fill="#ffc361"><path d="m232 104a16 16 0 1 1 16-16 16.019 16.019 0 0 1 -16 16z"/><path d="m432 96a16 16 0 1 1 16-16 16.019 16.019 0 0 1 -16 16z"/><path d="m424 296a16 16 0 1 1 16-16 16.019 16.019 0 0 1 -16 16z"/><path d="m88 248a16 16 0 1 1 16-16 16.019 16.019 0 0 1 -16 16z"/><path d="m280 440a16 16 0 1 1 16-16 16.019 16.019 0 0 1 -16 16z"/><path d="m80 448a16 16 0 1 1 16-16 16.019 16.019 0 0 1 -16 16z"/></g><path d="m403.57 119.75-283.82 283.82a32.133 32.133 0 0 1 -11.32-11.32l283.82-283.82z" fill="#f07800"/><path d="m104 347.32 243.32-243.32h-22.64l-220.68 220.68z" fill="#f07800"/><path d="m164.68 408 243.32-243.32v22.64l-220.68 220.68z" fill="#f07800"/><path d="m365.373 404h-14.059l-105.657-105.657-11.314 11.314 105.657 105.656v14.06a16 16 0 0 0 4.686 11.313l51.314 51.314 32-32-51.314-51.314a16 16 0 0 0 -11.313-4.686z" fill="#348fd9"/><path d="m150.627 112h14.059l101.657 101.657 11.314-11.314-101.657-101.657v-14.059a16 16 0 0 0 -4.686-11.313l-51.314-51.314-32 32 51.314 51.314a16 16 0 0 0 11.313 4.686z" fill="#348fd9"/><path d="m112 150.627a16 16 0 0 0 -4.686-11.313l-51.314-51.314-32 32 51.314 51.314a16 16 0 0 0 11.313 4.686h14.059l101.657 101.657 11.314-11.314-101.657-101.657z" fill="#348fd9"/><path d="m440.686 344.686a16 16 0 0 0 -11.313-4.686h-14.059l-105.657-105.657-11.314 11.314 105.657 105.656v14.06a16 16 0 0 0 4.686 11.313l51.314 51.314 32-32z" fill="#348fd9"/></g></svg>