<svg id="Capa_1" enable-background="new 0 0 512 512" height="512" viewBox="0 0 512 512" width="512" xmlns="http://www.w3.org/2000/svg"><g><g><g><g><g><g><g><g><g><circle cx="256" cy="256" fill="#64e1dc" r="256"/></g></g></g></g></g></g></g></g><path d="m274.494 511.342c132.752-9.477 237.506-120.176 237.506-255.342 0-2.447-.034-4.885-.103-7.316l-161.825-161.825-4.499 9.427-41.176-41.176-25.049 89.918-68.028-68.028 4.474 68.723-43.244-43.244 9.809 275.146 33.682 33.682-13.238 28.344z" fill="#1cadb5"/><g><path d="m414.748 231.875c-9.685-7.698-23.708-5.78-31 4.048l-39.653 53.415h-31.475c-.016.017-.026.028-.042.045l-5.905.411c-27.264 1.895-49.185 22.797-53.143 49.153l-12.895.112c3.709-30.693 27.321-55.735 57.813-61.114.912-.161 1.839-.229 2.765-.229 6.218-.005 16.357.018 16.37.004l36.309-174.907c2.122-10.605-4.755-20.922-15.36-23.044-10.605-2.122-20.922 4.755-23.044 15.36l-22.536 110.506h-7.427l26.387-130.49c2.083-10.412-4.239-20.9-14.57-23.352-10.846-2.574-21.573 4.37-23.742 15.207l-27.24 147.56h-6.16l-22.416-125.518c-1.143-10.117-10.27-17.392-20.387-16.249-10.117 1.143-17.391 10.27-16.249 20.387l22.184 132.538h-6.16l-20.102-113.755c-.984-8.714-8.951-15.308-17.644-14.161-8.431 1.113-14.452 8.779-13.493 17.265l19.95 141.539v85.623h.243c1.735 19.63 13.196 36.462 29.531 45.651.014.007.022.022.022.038 0 0 0 5.393.001 33.23 0 15.238 12.353 27.596 27.592 27.596h73.202c15.24 0 27.595-12.363 27.595-27.603 0-25.683.001-30.558.001-30.558 0-.017.01-.033.025-.04 8.078-3.61 15.029-9.302 20.167-16.389l74.093-111.915c7.031-9.478 5.632-23.021-3.607-30.364z" fill="#ffdecf"/></g><g fill="#ffcdbe"><path d="m298.448 277.944c.912-.161 1.839-.229 2.765-.229 6.218-.005 16.357.018 16.37.004l36.309-174.906c2.122-10.605-4.755-20.922-15.36-23.044s-20.922 4.755-23.044 15.359l-22.536 110.507h-7.427l26.387-130.49c2.083-10.412-4.239-20.9-14.57-23.352-10.846-2.574-21.573 4.37-23.742 15.207l-17.481 94.693v141.166c10.468-12.797 25.326-21.915 42.329-24.915z"/><path d="m414.748 231.875c-9.685-7.698-23.708-5.78-31 4.048l-39.653 53.415h-31.475c-.016.017-.026.028-.042.045l-5.905.411c-23.557 1.637-43.113 17.469-50.553 38.743v120.207h40.352c15.24 0 27.595-12.363 27.595-27.603 0-25.683.001-30.558.001-30.558 0-.018.01-.033.025-.04 8.078-3.611 15.029-9.302 20.167-16.389l74.093-111.915c7.033-9.478 5.634-23.02-3.605-30.364z"/></g></g></svg>